<svg width="72" height="42" viewBox="0 0 72 42" fill="none" xmlns="http://www.w3.org/2000/svg">
<path fill-rule="evenodd" clip-rule="evenodd" d="M34.881 20.9972C34.881 12.5324 35.2926 6.548 35.63 3.06355C35.8127 1.17764 37.7048 0.0849285 39.4298 0.868731C42.6222 2.31931 48.0222 4.95704 55.3583 9.18961C62.6853 13.4169 67.6697 16.7656 70.5263 18.8017C72.0726 19.9039 72.0724 22.0946 70.5259 23.1965C67.6706 25.2309 62.6882 28.5771 55.3583 32.807C48.017 37.0435 42.6185 39.6796 39.4278 41.1282C37.7034 41.9112 35.8129 40.8186 35.6303 38.9336C35.3838 36.3893 35.0978 32.5113 34.9614 27.3071C36.3032 27.3102 37.5753 27.4208 38.9105 27.537C40.924 27.7121 43.0811 27.8997 45.8379 27.7497C50.1181 27.5168 56.7669 24.5088 55.7786 23.1502C54.7902 21.7915 53.7112 21.1325 51.8825 20.9742C50.4718 20.8521 49.3826 21.4077 48.1291 22.047C47.6389 22.297 47.1236 22.5598 46.5541 22.7999C46.0002 23.0334 45.8763 23.3908 45.7681 23.703L45.768 23.703C45.7139 23.859 45.6638 24.0037 45.5658 24.1161C44.9642 24.385 43.6343 24.6777 43.9042 24.339C44.5509 23.5273 44.6004 22.7814 44.6514 22.0138V22.0138C44.6839 21.5234 44.717 21.0241 44.9069 20.493C44.967 20.3249 45.0733 20.1656 45.2092 19.962C45.5316 19.479 46.0205 18.7466 46.4538 17.054C46.5751 16.5803 46.699 16.1401 47.4565 16.2898C49.3022 16.6545 51.0398 16.7447 52.6237 16.8269C55.035 16.952 57.0902 17.0586 58.629 18.0871C58.7834 18.1903 58.8025 18.396 58.8277 18.6685C58.882 19.2553 58.9651 20.152 60.4911 21.0025C60.9305 21.2474 61.3901 21.6001 61.7478 21.8746L61.7478 21.8746C62.0123 22.0775 62.221 22.2377 62.3245 22.2798C62.568 22.3789 62.7613 22.115 62.3245 21.3847C62.1775 21.1388 61.9992 21.0358 61.8337 20.9402C61.5801 20.7936 61.3565 20.6645 61.3219 20.0649C61.6979 20.2265 62.3001 20.7119 62.9097 21.2032L62.9097 21.2033C63.9021 22.0032 64.9142 22.819 65.0031 22.2798C65.1465 21.4094 64.7361 20.0649 63.8858 18.8938C63.3639 18.175 62.5087 17.6907 61.6229 17.1892C61.0654 16.8735 60.4959 16.551 59.9897 16.1589C59.4519 15.7422 58.585 15.4058 57.5604 15.0081L57.5603 15.0081C56.7838 14.7068 55.9168 14.3703 55.0337 13.9371L54.8819 13.8625C52.2834 12.5869 48.6838 10.8197 44.8066 11.3471C44.0428 11.451 42.6612 13.149 41.5913 14.464L41.5913 14.464L41.5912 14.4641C41.1965 14.9492 40.8443 15.3821 40.5811 15.6637C39.1154 17.2317 38.4469 18.552 37.9978 19.4391L37.9978 19.4392C37.7447 19.9391 37.5612 20.3015 37.3439 20.493C36.6371 21.1162 35.8227 21.4187 34.8822 21.7648C34.8814 21.5113 34.881 21.2554 34.881 20.9972ZM15.4852 12.9172H17.1382V11.2515H15.4852V12.9172ZM15.4852 20.221H17.1382V13.8142H15.4852V20.221ZM2.58834 15.0956C2.06299 15.0956 1.72983 15.3006 1.72983 15.6722C1.72983 16.12 2.28603 16.2432 2.95157 16.3906C3.94284 16.6101 5.17669 16.8834 5.17669 18.363C5.17669 19.7213 3.99784 20.4004 2.58834 20.4004C1.17885 20.4004 0 19.6828 0 18.1836H1.61451C1.61451 18.6834 1.98611 18.9396 2.58834 18.9396C3.19058 18.9396 3.52374 18.7346 3.52374 18.363C3.52374 17.9212 2.96966 17.7966 2.3058 17.6473C1.31389 17.4242 0.0768815 17.146 0.0768815 15.6722C0.0768815 14.3267 1.25573 13.6348 2.58834 13.6348C3.8697 13.6348 5.04855 14.3524 5.04855 15.8516H3.43404C3.43404 15.3518 3.06245 15.0956 2.58834 15.0956ZM11.6461 18.0299L12.8506 13.8142H14.6061L12.5175 20.221H11.0183H10.9414L10.0957 17.6455L9.25001 20.221H7.94302H7.67394L5.57251 13.8142H7.34078L8.5837 18.1964L9.41658 15.5825L8.83997 13.8142H10.3135L11.6461 18.0299ZM23.3793 14.4805C23.8149 13.9423 24.3916 13.6348 25.1476 13.6348C26.352 13.6348 27.1337 14.4292 27.1337 15.9028V20.221H25.4807V16.0309C25.4807 15.3903 25.1091 15.1724 24.6735 15.1724C24.225 15.1724 23.7253 15.4159 23.7253 16.2488V20.221H22.0723V16.0309C22.0723 15.3903 21.6879 15.1724 21.2522 15.1724C20.8038 15.1724 20.304 15.4159 20.304 16.2488V20.221H18.6511V13.8142H20.304V14.4421C20.65 13.9167 21.1882 13.6348 21.8417 13.6348C22.4951 13.6348 23.0461 13.9295 23.3793 14.4805ZM17.2854 24.0651V27.7682C17.2854 28.742 16.7729 29.1136 16.1194 29.1136C15.5428 29.1136 15.1071 28.7676 15.1071 28.0373V24.0651H13.4542V28.1526C13.4542 29.7287 14.3511 30.6512 15.5428 30.6512C16.3372 30.6512 16.9266 30.3565 17.2854 29.8055V30.4718H18.9384V24.0651H17.2854ZM22.1059 24.8082C22.5672 24.2316 23.2463 23.8857 24.1817 23.8857C25.8988 23.8857 27.3083 25.3592 27.3083 27.2685C27.3083 29.1777 25.8988 30.6512 24.1817 30.6512C23.2463 30.6512 22.5672 30.3053 22.1059 29.7287V33.0346H20.453V24.0651H22.1059V24.8082ZM22.1059 27.3838C22.1572 28.396 22.9004 29.0752 23.8742 29.0752C24.8993 29.0752 25.6553 28.3448 25.6553 27.2685C25.6553 26.1921 24.8993 25.4617 23.8742 25.4617C22.9004 25.4617 22.1572 26.1409 22.1059 27.1531V27.3838Z" fill="white"/>
</svg>
